# Blender 4.0.2
# www.blender.org
mtllib foliage-mesh.mtl
o Plane
v -1.000000 0.000000 0.000000
v -1.000000 -0.000000 2.000000
v 1.000000 0.000000 0.000000
v 1.000000 -0.000000 2.000000
v -1.000000 -0.000000 4.000000
v 1.000000 -0.000000 4.000000
v -1.000000 -0.000000 6.000000
v 1.000000 -0.000000 6.000000
v -1.000000 -0.000000 8.000000
v 1.000000 -0.000000 8.000000
v -1.000000 -0.000000 10.000000
v 1.000000 -0.000000 10.000000
vn -0.0000 1.0000 -0.0000
s 0
usemtl Material
f 1//1 2//1 4//1 3//1
f 4//1 2//1 5//1 6//1
f 6//1 5//1 7//1 8//1
f 8//1 7//1 9//1 10//1
f 10//1 9//1 11//1 12//1
